<svg width="41" height="32" viewBox="0 0 41 32" fill="none" xmlns="http://www.w3.org/2000/svg">
<rect width="40.9614" height="32" rx="8" fill="#818181"/>
<path d="M8.28326 4.10861C8.28326 4.10861 13.8054 1.89566 13.8054 7.2695C13.8054 12.6433 7.66969 10.7465 7.66969 10.7465M7.66969 10.7465H0M7.66969 10.7465V18.6487M7.66969 18.6487H0M7.66969 18.6487C7.66969 18.6487 15.6462 18.6487 15.0326 23.7061C14.419 28.7635 9.8172 27.8153 9.8172 27.8153" stroke="white" stroke-width="2"/>
<path d="M32.4064 25.5742C32.4064 25.5742 26.722 27.87 26.6265 22.5372C26.531 17.2044 32.9244 18.9759 32.9244 18.9759M32.9244 18.9759L40.874 18.8374M32.9244 18.9759L32.784 11.134M32.784 11.134L40.7336 10.9955M32.784 11.134C32.784 11.134 24.5163 11.2781 25.0624 6.24819C25.6085 1.21829 30.3952 2.0762 30.3952 2.0762" stroke="white" stroke-width="2"/>
</svg>
