<?xml version="1.0" encoding="UTF-8"?>
<svg id="Layer_2" data-name="Layer 2" xmlns="http://www.w3.org/2000/svg" viewBox="0 0 812.11 212.6">
  <defs>
    <style>
      .cls-1 {
        fill: #fff;
      }

      .cls-2 {
        fill: #f7ac3b;
      }

      .cls-3 {
        fill: #00a39d;
      }
    </style>
  </defs>
  <g id="Layer_1-2" data-name="Layer 1">
    <g>
      <g>
        <g>
          <path class="cls-3" d="M31.29,15.16c-4.11,0-7.67,3.11-7.96,7.22-.16,2.36.73,4.52,2.26,6.05,1.4,1.41,3.35,2.28,5.49,2.28h62.18c2.15,0,4.09.87,5.49,2.28,1.41,1.4,2.28,3.35,2.28,5.49s-.87,4.09-2.28,5.49c-1.4,1.41-3.35,2.28-5.49,2.28h-30.88c-4.11,0-7.67,3.11-7.96,7.22-.16,2.36.73,4.52,2.26,6.05,1.4,1.41,3.35,2.28,5.49,2.28h31.09c2.15,0,4.09.87,5.49,2.28,1.53,1.52,2.42,3.68,2.26,6.05-.28,4.1-3.84,7.22-7.96,7.22-13.26,0-56.29,0-69.54,0-4.11,0-7.67,3.11-7.96,7.22-.16,2.36.73,4.52,2.26,6.05,1.4,1.41,3.35,2.28,5.49,2.28h69.95c2.15,0,4.09.87,5.49,2.28,1.41,1.4,2.28,3.35,2.28,5.49s-.87,4.09-2.28,5.49c-1.4,1.41-3.35,2.28-5.49,2.28h-46.43c-4.11,0-7.67,3.11-7.96,7.22-.16,2.36.73,4.52,2.26,6.05,1.4,1.41,3.35,2.28,5.49,2.28h46.63c2.15,0,4.09.87,5.49,2.28,1.53,1.52,2.42,3.68,2.26,6.05-.28,4.1-3.84,7.22-7.96,7.22-15.17,0-69.91,0-85.09,0-4.11,0-7.67,3.11-7.96,7.22-.16,2.36.73,4.52,2.26,6.05,1.4,1.41,3.35,2.28,5.49,2.28h85.5c2.15,0,4.09.87,5.49,2.28,1.41,1.4,2.28,3.35,2.28,5.49s-.87,4.09-2.28,5.49c-1.4,1.41-3.35,2.28-5.49,2.28h-54.2c-4.11,0-7.67,3.11-7.96,7.22-.16,2.36.73,4.52,2.26,6.05,1.4,1.41,3.35,2.28,5.49,2.28h292.76c5.72,0,10.36-4.64,10.36-10.36V25.53c0-5.72-4.64-10.36-10.36-10.36H31.29Z"/>
          <circle class="cls-3" cx="15.54" cy="178.38" r="7.77"/>
          <circle class="cls-3" cx="23.32" cy="116.2" r="7.77"/>
          <path class="cls-3" d="M44.35,59.52c1.41-1.4,2.28-3.35,2.28-5.49s-.87-4.09-2.28-5.49c-1.4-1.41-3.35-2.28-5.49-2.28-4.29,0-7.77,3.48-7.77,7.77,0,2.15.87,4.09,2.28,5.49,1.4,1.41,3.35,2.28,5.49,2.28s4.09-.87,5.49-2.28Z"/>
        </g>
        <rect class="cls-1" x="116.59" y="38.48" width="202.08" height="124.36" rx="20" ry="20"/>
        <rect class="cls-3" x="116.59" y="61.8" width="202.08" height="3.89"/>
        <path class="cls-2" d="M284.79,80.16c-.03-.45-.08-.9-.15-1.34,2.93,3.02,7.1,4.79,11.63,4.5,2.16-.14,4.19-.73,5.99-1.68-1.4,2.44-2.12,5.3-1.93,8.32.24,3.74,1.84,7.06,4.28,9.53-1.25-.25-2.55-.35-3.88-.26-5.29.33-9.76,3.4-12.13,7.74-.93-6.41-5.91-11.39-12.12-12.49,5.25-2.57,8.71-8.11,8.32-14.31"/>
      </g>
      <g>
        <g>
          <path class="cls-3" d="M432.23.72v9.63h-28.85v18.05h22.73v9.31h-22.73v18.41h28.85v9.67h-41.04V.72h41.04Z"/>
          <path class="cls-3" d="M499.9,65.79h-9.36c-1.05,0-1.91-.26-2.59-.79-.67-.53-1.16-1.18-1.46-1.96l-4.86-13.27h-26.96l-4.86,13.27c-.24.69-.71,1.32-1.42,1.89-.71.57-1.57.86-2.59.86h-9.41L461.97.72h12.38l25.56,65.07ZM457.78,41.22h20.75l-7.92-21.64c-.36-.96-.76-2.09-1.19-3.4-.44-1.31-.86-2.72-1.28-4.25-.42,1.53-.83,2.96-1.24,4.28-.41,1.32-.8,2.47-1.19,3.46l-7.92,21.55Z"/>
          <path class="cls-3" d="M541.48,12.55c-.33.66-.71,1.12-1.15,1.4-.44.27-.95.41-1.55.41s-1.28-.23-2.03-.7c-.75-.46-1.63-.98-2.65-1.55-1.02-.57-2.21-1.09-3.58-1.55s-2.98-.7-4.84-.7c-1.68,0-3.14.2-4.39.61-1.25.4-2.29.97-3.15,1.69-.85.72-1.49,1.58-1.91,2.59-.42,1.01-.63,2.11-.63,3.31,0,1.53.43,2.81,1.28,3.83.85,1.02,1.99,1.89,3.4,2.61,1.41.72,3.01,1.37,4.82,1.93,1.8.57,3.64,1.18,5.51,1.82,1.88.65,3.71,1.4,5.51,2.25,1.8.86,3.4,1.94,4.82,3.24,1.41,1.3,2.54,2.9,3.4,4.79.85,1.89,1.28,4.18,1.28,6.88,0,2.94-.5,5.69-1.51,8.26-1,2.57-2.47,4.8-4.41,6.71-1.94,1.91-4.3,3.41-7.09,4.5s-5.99,1.64-9.58,1.64c-2.07,0-4.11-.2-6.12-.61s-3.94-.98-5.78-1.73c-1.85-.75-3.57-1.65-5.17-2.7-1.61-1.05-3.04-2.22-4.3-3.51l3.51-5.8c.33-.42.73-.77,1.19-1.06s.98-.43,1.55-.43c.75,0,1.56.31,2.43.92s1.9,1.3,3.08,2.05c1.18.75,2.58,1.43,4.18,2.05,1.6.62,3.53.92,5.78.92,3.45,0,6.12-.82,8.01-2.45,1.89-1.63,2.83-3.98,2.83-7.04,0-1.71-.43-3.11-1.28-4.19-.86-1.08-1.99-1.99-3.4-2.72s-3.01-1.36-4.81-1.87c-1.8-.51-3.63-1.06-5.49-1.67-1.86-.6-3.69-1.32-5.49-2.16-1.8-.84-3.41-1.93-4.81-3.28-1.41-1.35-2.54-3.04-3.4-5.06-.86-2.03-1.28-4.52-1.28-7.49,0-2.37.47-4.68,1.42-6.93s2.32-4.25,4.14-5.99c1.82-1.74,4.04-3.13,6.68-4.18,2.64-1.05,5.66-1.58,9.04-1.58,3.84,0,7.38.6,10.62,1.8,3.24,1.2,6,2.88,8.28,5.04l-2.97,5.71Z"/>
          <path class="cls-3" d="M583.83,40.5v25.29h-12.1v-25.29L548.01.72h10.67c1.05,0,1.88.26,2.5.77.61.51,1.13,1.16,1.55,1.93l11.92,21.74c.69,1.29,1.29,2.51,1.8,3.67.51,1.16.97,2.29,1.39,3.4.39-1.14.83-2.29,1.33-3.44.5-1.15,1.09-2.36,1.78-3.62l11.83-21.74c.33-.66.83-1.27,1.49-1.84.66-.57,1.5-.86,2.52-.86h10.71l-23.67,39.78Z"/>
          <path class="cls-3" d="M444.74,150.79h-8.78v-29.34h-34.74v29.34h-8.78v-64.49h8.78v28.75h34.74v-28.75h8.78v64.49Z"/>
          <path class="cls-3" d="M513.54,150.79h-6.75c-.78,0-1.41-.19-1.89-.58-.48-.39-.84-.88-1.08-1.49l-6.03-15.57h-28.93l-6.03,15.57c-.21.54-.57,1.02-1.08,1.44-.51.42-1.14.63-1.89.63h-6.75l25.79-64.49h8.86l25.79,64.49ZM471.29,126.85h24.08l-10.12-26.23c-.66-1.62-1.3-3.65-1.94-6.08-.33,1.23-.65,2.36-.97,3.4-.32,1.04-.62,1.94-.92,2.72l-10.12,26.19Z"/>
          <path class="cls-3" d="M554.72,96.38c-.27.45-.56.79-.86,1.01s-.69.34-1.17.34c-.51,0-1.1-.25-1.78-.77-.67-.51-1.53-1.07-2.57-1.69-1.04-.61-2.28-1.18-3.73-1.69-1.46-.51-3.22-.76-5.29-.76-1.95,0-3.67.26-5.17.79-1.5.53-2.75,1.24-3.76,2.14-1,.9-1.76,1.96-2.27,3.17s-.76,2.53-.76,3.94c0,1.8.44,3.29,1.33,4.48.88,1.19,2.05,2.2,3.51,3.04,1.45.84,3.1,1.57,4.95,2.18,1.85.62,3.74,1.25,5.67,1.91,1.94.66,3.83,1.4,5.67,2.23,1.84.83,3.49,1.87,4.95,3.13s2.62,2.81,3.51,4.63c.88,1.83,1.33,4.08,1.33,6.75,0,2.82-.48,5.47-1.44,7.94-.96,2.48-2.36,4.63-4.21,6.46s-4.11,3.27-6.79,4.32c-2.69,1.05-5.74,1.58-9.16,1.58-4.17,0-7.97-.76-11.41-2.27-3.44-1.51-6.37-3.56-8.8-6.14l2.52-4.14c.24-.33.53-.61.88-.83.34-.22.73-.34,1.15-.34.63,0,1.35.34,2.16,1.01.81.67,1.82,1.42,3.04,2.23,1.21.81,2.68,1.55,4.41,2.23,1.72.67,3.83,1.01,6.32,1.01,2.07,0,3.92-.28,5.54-.85,1.62-.57,2.99-1.37,4.12-2.41,1.12-1.04,1.99-2.27,2.59-3.71.6-1.44.9-3.04.9-4.82,0-1.95-.44-3.55-1.33-4.79-.88-1.24-2.05-2.29-3.49-3.13-1.44-.84-3.08-1.55-4.93-2.14s-3.74-1.19-5.67-1.8c-1.93-.61-3.83-1.33-5.67-2.14-1.84-.81-3.49-1.86-4.93-3.15-1.44-1.29-2.6-2.9-3.49-4.84-.89-1.93-1.33-4.33-1.33-7.18,0-2.28.44-4.49,1.33-6.62.88-2.13,2.17-4.02,3.85-5.67,1.68-1.65,3.76-2.97,6.23-3.96,2.47-.99,5.32-1.49,8.53-1.49,3.6,0,6.88.57,9.86,1.71,2.97,1.14,5.56,2.79,7.78,4.95l-2.11,4.14Z"/>
          <path class="cls-3" d="M622.44,150.79h-6.75c-.78,0-1.41-.19-1.89-.58-.48-.39-.84-.88-1.08-1.49l-6.03-15.57h-28.93l-6.03,15.57c-.21.54-.57,1.02-1.08,1.44-.51.42-1.14.63-1.89.63h-6.75l25.79-64.49h8.86l25.79,64.49ZM580.18,126.85h24.08l-10.12-26.23c-.66-1.62-1.3-3.65-1.94-6.08-.33,1.23-.65,2.36-.97,3.4-.32,1.04-.62,1.94-.92,2.72l-10.12,26.19Z"/>
          <path class="cls-3" d="M636.82,86.6c.38.2.8.59,1.28,1.19l37.35,48.6c-.09-.78-.15-1.54-.18-2.27-.03-.73-.04-1.45-.04-2.14v-45.68h7.65v64.49h-4.41c-.69,0-1.27-.12-1.73-.36-.47-.24-.92-.64-1.37-1.21l-37.31-48.55c.06.75.1,1.49.13,2.21s.05,1.38.05,1.98v45.95h-7.65v-64.49h4.5c.78,0,1.36.1,1.73.29Z"/>
          <path class="cls-3" d="M751.68,150.79h-6.75c-.78,0-1.41-.19-1.89-.58-.48-.39-.84-.88-1.08-1.49l-6.03-15.57h-28.93l-6.03,15.57c-.21.54-.57,1.02-1.08,1.44-.51.42-1.14.63-1.89.63h-6.75l25.79-64.49h8.86l25.79,64.49ZM709.42,126.85h24.08l-10.12-26.23c-.66-1.62-1.3-3.65-1.94-6.08-.33,1.23-.65,2.36-.97,3.4-.32,1.04-.62,1.94-.92,2.72l-10.12,26.19Z"/>
          <path class="cls-3" d="M812.11,150.79h-8.78v-29.34h-34.74v29.34h-8.78v-64.49h8.78v28.75h34.74v-28.75h8.78v64.49Z"/>
        </g>
        <g>
          <g>
            <path class="cls-2" d="M394.37,206.15v-28.47h4.73v11.23c.78-.83,1.66-1.49,2.64-1.98.98-.49,2.13-.74,3.45-.74,1.07,0,2.05.22,2.94.66s1.65,1.08,2.3,1.93c.64.84,1.14,1.88,1.49,3.12.35,1.24.53,2.66.53,4.27,0,1.47-.2,2.83-.59,4.08-.4,1.25-.96,2.34-1.7,3.26-.73.92-1.62,1.64-2.66,2.16-1.04.52-2.21.78-3.5.78-.6,0-1.15-.06-1.65-.18s-.95-.29-1.36-.51c-.41-.22-.79-.48-1.14-.79-.35-.31-.69-.66-1.01-1.04l-.21,1.32c-.08.33-.21.57-.39.71-.18.14-.44.21-.76.21h-3.12ZM403.57,189.86c-.98,0-1.82.21-2.52.62-.7.42-1.34,1-1.95,1.75v8.81c.54.67,1.12,1.13,1.75,1.39.63.26,1.32.39,2.06.39s1.36-.13,1.93-.4c.58-.27,1.06-.68,1.47-1.23.4-.55.71-1.24.93-2.08.22-.84.33-1.82.33-2.96s-.09-2.12-.28-2.92c-.19-.8-.45-1.45-.8-1.95-.34-.5-.76-.86-1.25-1.09-.49-.23-1.05-.34-1.68-.34Z"/>
            <path class="cls-2" d="M422.5,211.55c-.14.33-.32.58-.55.76-.22.17-.57.26-1.03.26h-3.53l3.68-7.87-7.95-18.2h4.14c.38,0,.68.09.88.27.2.18.36.38.46.61l4.2,10.19c.14.33.26.68.36,1.03.1.36.19.72.27,1.07.1-.37.21-.73.34-1.07.12-.34.25-.7.39-1.05l3.95-10.17c.1-.25.27-.47.51-.63s.5-.25.79-.25h3.79l-10.71,25.06Z"/>
          </g>
          <g>
            <path class="cls-3" d="M502.69,178.14v34.2h8.04v-25.63c0-1.91-1.02-7.7-8.04-8.57"/>
            <path class="cls-3" d="M459.05,178.88c2.3,0,4.27.21,5.88.64,1.62.43,2.94,1.03,3.96,1.81,1.02.78,1.77,1.72,2.23,2.84.47,1.11.7,2.36.7,3.73,0,.75-.11,1.47-.32,2.16-.21.69-.55,1.34-1.01,1.95-.46.6-1.05,1.16-1.76,1.66-.72.5-1.58.94-2.59,1.3,2.2.53,3.82,1.4,4.88,2.59,1.05,1.19,1.58,2.73,1.58,4.62,0,1.42-.27,2.74-.82,3.96-.55,1.22-1.35,2.29-2.42,3.19-1.06.91-2.37,1.62-3.93,2.13-1.56.51-3.33.77-5.33.77h-13.32v-33.35h12.27ZM454.52,184.67v8.24h4.03c.85,0,1.63-.06,2.31-.18.69-.12,1.27-.34,1.75-.64.48-.31.85-.72,1.1-1.26.25-.53.38-1.21.38-2.01s-.1-1.45-.3-1.98c-.2-.53-.5-.95-.92-1.27-.41-.32-.94-.55-1.57-.69-.63-.14-1.39-.21-2.25-.21h-4.53ZM459.97,206.39c1.02,0,1.86-.13,2.51-.39.65-.26,1.16-.6,1.52-1.01.37-.41.62-.88.76-1.4.14-.52.21-1.05.21-1.58,0-.61-.08-1.16-.24-1.65-.16-.49-.43-.9-.82-1.24-.39-.34-.9-.6-1.55-.78-.64-.18-1.45-.27-2.43-.27h-5.4v8.31h5.45Z"/>
            <path class="cls-3" d="M495.86,185.65c-.23.37-.47.64-.72.82-.25.18-.58.27-.97.27-.35,0-.73-.11-1.13-.33-.4-.22-.86-.47-1.37-.74-.51-.27-1.1-.52-1.75-.74-.66-.22-1.4-.33-2.24-.33-1.45,0-2.53.31-3.24.93-.71.62-1.06,1.45-1.06,2.51,0,.67.21,1.23.64,1.67.43.44.99.82,1.68,1.14.69.32,1.49.61,2.38.88.89.27,1.8.56,2.74.89.93.33,1.84.71,2.74,1.16.89.44,1.69,1.01,2.38,1.69.69.69,1.26,1.52,1.68,2.51.43.98.64,2.17.64,3.56,0,1.54-.27,2.98-.8,4.33-.53,1.34-1.31,2.51-2.32,3.51-1.02,1-2.27,1.79-3.75,2.36-1.49.57-3.18.86-5.07.86-1.04,0-2.1-.11-3.17-.32-1.08-.21-2.12-.51-3.12-.9-1.01-.39-1.95-.85-2.84-1.38-.89-.53-1.66-1.13-2.31-1.79l2.29-3.62c.18-.26.42-.48.72-.65.3-.18.62-.26.97-.26.46,0,.92.14,1.38.43.47.29.99.61,1.58.96.59.35,1.26.67,2.03.96.76.29,1.66.43,2.7.43,1.4,0,2.5-.31,3.27-.93.78-.62,1.17-1.6,1.17-2.94,0-.78-.21-1.41-.64-1.9-.43-.49-.99-.89-1.68-1.21-.7-.32-1.48-.6-2.37-.85-.89-.24-1.79-.51-2.72-.81-.93-.3-1.84-.66-2.72-1.1-.89-.44-1.68-1.01-2.37-1.72-.7-.71-1.26-1.59-1.68-2.66-.43-1.06-.64-2.37-.64-3.93,0-1.25.25-2.47.76-3.66.5-1.19,1.24-2.25,2.22-3.18.98-.93,2.18-1.67,3.59-2.23,1.42-.56,3.04-.84,4.88-.84,1.02,0,2.02.08,2.99.24.97.16,1.89.4,2.76.71.87.31,1.68.69,2.44,1.12.76.44,1.43.93,2.03,1.48l-1.92,3.59Z"/>
            <path class="cls-2" d="M511.61,165.82c-.02-.28-.05-.55-.09-.83,1.8,1.86,4.37,2.94,7.15,2.77,1.33-.08,2.57-.45,3.68-1.03-.86,1.5-1.31,3.26-1.19,5.12.15,2.3,1.13,4.34,2.63,5.86-.77-.15-1.57-.21-2.39-.16-3.25.21-6,2.09-7.46,4.76-.57-3.94-3.63-7-7.45-7.68,3.23-1.58,5.36-4.99,5.12-8.8"/>
          </g>
        </g>
      </g>
    </g>
  </g>
</svg>