<?xml version="1.0" encoding="UTF-8"?>
<svg id="Layer_2" data-name="Layer 2" xmlns="http://www.w3.org/2000/svg" viewBox="0 0 350.51 345.73">
  <defs>
    <style>
      .cls-1 {
        fill: #fff;
      }

      .cls-2 {
        fill: #f7ac3b;
      }

      .cls-3 {
        fill: #00a39d;
      }
    </style>
  </defs>
  <g id="Layer_1-2" data-name="Layer 1">
    <g>
      <g>
        <g>
          <path class="cls-3" d="M58.62,0c-3.44,0-6.41,2.6-6.65,6.03-.14,1.97.61,3.78,1.89,5.05,1.17,1.18,2.8,1.9,4.59,1.9h51.93c1.79,0,3.41.73,4.59,1.9,1.18,1.17,1.9,2.8,1.9,4.59s-.73,3.41-1.9,4.59c-1.17,1.18-2.8,1.9-4.59,1.9h-25.79c-3.44,0-6.41,2.6-6.65,6.03-.14,1.97.61,3.78,1.89,5.05,1.17,1.18,2.8,1.9,4.59,1.9h25.97c1.79,0,3.41.73,4.59,1.9,1.28,1.27,2.03,3.08,1.89,5.05-.24,3.43-3.21,6.03-6.65,6.03-11.07,0-47.01,0-58.08,0-3.44,0-6.41,2.6-6.65,6.03-.14,1.97.61,3.78,1.89,5.05,1.17,1.18,2.8,1.9,4.59,1.9h58.42c1.79,0,3.41.73,4.59,1.9,1.18,1.17,1.9,2.8,1.9,4.59s-.73,3.41-1.9,4.59c-1.17,1.18-2.8,1.9-4.59,1.9h-38.78c-3.44,0-6.41,2.6-6.65,6.03-.14,1.97.61,3.78,1.89,5.05,1.17,1.18,2.8,1.9,4.59,1.9h38.95c1.79,0,3.41.73,4.59,1.9,1.28,1.27,2.03,3.08,1.89,5.05-.24,3.43-3.21,6.03-6.65,6.03-12.67,0-58.39,0-71.07,0-3.44,0-6.41,2.6-6.65,6.03-.14,1.97.61,3.78,1.89,5.05,1.17,1.18,2.8,1.9,4.59,1.9h71.41c1.79,0,3.41.73,4.59,1.9,1.18,1.17,1.9,2.8,1.9,4.59s-.73,3.41-1.9,4.59c-1.17,1.18-2.8,1.9-4.59,1.9h-45.27c-3.44,0-6.41,2.6-6.65,6.03-.14,1.97.61,3.78,1.89,5.05,1.17,1.18,2.8,1.9,4.59,1.9h244.52c4.78,0,8.66-3.88,8.66-8.66V8.66C318.11,3.88,314.23,0,309.45,0H58.62Z"/>
          <circle class="cls-3" cx="45.46" cy="136.32" r="6.49"/>
          <circle class="cls-3" cx="51.95" cy="84.39" r="6.49"/>
          <path class="cls-3" d="M69.52,37.05c1.18-1.17,1.9-2.8,1.9-4.59s-.73-3.41-1.9-4.59c-1.17-1.18-2.8-1.9-4.59-1.9-3.58,0-6.49,2.91-6.49,6.49,0,1.79.73,3.41,1.9,4.59,1.17,1.18,2.8,1.9,4.59,1.9s3.41-.73,4.59-1.9Z"/>
        </g>
        <rect class="cls-1" x="129.85" y="19.47" width="168.78" height="103.87" rx="11.72" ry="11.72"/>
        <rect class="cls-3" x="129.85" y="38.95" width="168.78" height="3.25"/>
        <path class="cls-2" d="M270.33,54.29c-.02-.38-.07-.75-.12-1.12,2.44,2.52,5.93,4,9.71,3.76,1.81-.11,3.5-.61,5-1.41-1.17,2.04-1.77,4.43-1.61,6.95.2,3.12,1.53,5.9,3.57,7.96-1.04-.21-2.13-.29-3.24-.22-4.42.28-8.15,2.84-10.13,6.46-.78-5.35-4.93-9.51-10.12-10.43,4.39-2.14,7.28-6.78,6.95-11.95"/>
      </g>
      <g>
        <g>
          <path class="cls-3" d="M122.09,168.77v8.04h-24.09v15.07h18.98v7.78h-18.98v15.37h24.09v8.08h-34.28v-54.35h34.28Z"/>
          <path class="cls-3" d="M178.62,223.11h-7.82c-.88,0-1.6-.22-2.16-.66-.56-.44-.97-.98-1.22-1.63l-4.06-11.09h-22.51l-4.06,11.09c-.2.58-.6,1.1-1.18,1.58-.59.48-1.31.71-2.16.71h-7.86l21.35-54.35h10.34l21.35,54.35ZM143.44,202.59h17.33l-6.61-18.08c-.3-.8-.63-1.75-1-2.84-.36-1.09-.72-2.27-1.07-3.55-.35,1.28-.7,2.47-1.03,3.57-.34,1.1-.67,2.07-1,2.89l-6.62,18Z"/>
          <path class="cls-3" d="M213.35,178.65c-.28.55-.6.94-.96,1.17-.36.23-.8.34-1.3.34s-1.07-.19-1.69-.58c-.63-.39-1.37-.82-2.22-1.3s-1.85-.91-2.99-1.3c-1.14-.39-2.49-.58-4.04-.58-1.4,0-2.62.17-3.66.51-1.04.34-1.92.81-2.63,1.41s-1.25,1.32-1.6,2.16c-.35.84-.53,1.76-.53,2.76,0,1.28.36,2.34,1.07,3.19.71.85,1.66,1.58,2.84,2.18,1.18.6,2.52,1.14,4.02,1.62,1.5.48,3.04.98,4.6,1.52,1.57.54,3.1,1.17,4.6,1.88,1.5.71,2.84,1.62,4.02,2.71,1.18,1.09,2.12,2.42,2.84,4,.71,1.58,1.07,3.5,1.07,5.75,0,2.46-.42,4.75-1.26,6.9s-2.07,4.01-3.68,5.6c-1.62,1.59-3.59,2.84-5.92,3.76s-5,1.37-8,1.37c-1.73,0-3.43-.17-5.11-.51-1.68-.34-3.29-.82-4.83-1.45-1.54-.63-2.98-1.38-4.32-2.25-1.34-.88-2.54-1.85-3.59-2.93l2.93-4.85c.28-.35.61-.65,1-.88.39-.24.82-.36,1.3-.36.63,0,1.3.26,2.03.77s1.58,1.08,2.58,1.71c.99.63,2.15,1.2,3.5,1.71,1.34.51,2.95.77,4.83.77,2.88,0,5.11-.68,6.69-2.05,1.58-1.37,2.37-3.33,2.37-5.88,0-1.43-.36-2.59-1.07-3.5s-1.66-1.66-2.84-2.27-2.52-1.13-4.02-1.56c-1.5-.43-3.03-.89-4.58-1.39-1.55-.5-3.08-1.1-4.59-1.8-1.5-.7-2.84-1.62-4.02-2.74-1.18-1.13-2.12-2.54-2.84-4.23-.71-1.69-1.07-3.78-1.07-6.26,0-1.98.39-3.91,1.18-5.79s1.94-3.54,3.46-5c1.52-1.45,3.38-2.62,5.58-3.5,2.2-.88,4.72-1.32,7.55-1.32,3.21,0,6.16.5,8.87,1.5,2.71,1,5.01,2.41,6.92,4.21l-2.48,4.77Z"/>
          <path class="cls-3" d="M248.71,201.99v21.12h-10.11v-21.12l-19.81-33.22h8.91c.88,0,1.57.21,2.09.64.51.43.95.96,1.3,1.62l9.96,18.15c.58,1.08,1.08,2.1,1.5,3.06.43.96.81,1.91,1.17,2.84.33-.95.7-1.91,1.11-2.88.41-.96.91-1.97,1.49-3.03l9.88-18.15c.28-.55.69-1.06,1.24-1.54.55-.48,1.25-.71,2.1-.71h8.95l-19.77,33.22Z"/>
          <path class="cls-3" d="M43.67,294.1h-7.33v-24.5H7.33v24.5H0v-53.86h7.33v24.02h29.02v-24.02h7.33v53.86Z"/>
          <path class="cls-3" d="M101.14,294.1h-5.64c-.65,0-1.18-.16-1.58-.49-.4-.33-.7-.74-.9-1.24l-5.04-13h-24.17l-5.04,13c-.18.45-.48.85-.9,1.2-.43.35-.95.53-1.58.53h-5.64l21.54-53.86h7.4l21.54,53.86ZM65.85,274.11h20.11l-8.46-21.91c-.55-1.35-1.09-3.04-1.62-5.07-.28,1.03-.54,1.97-.81,2.84-.26.86-.52,1.62-.77,2.27l-8.46,21.87Z"/>
          <path class="cls-3" d="M135.53,248.66c-.23.38-.46.66-.71.85-.25.19-.58.28-.98.28-.43,0-.92-.21-1.48-.64-.56-.43-1.28-.9-2.14-1.41-.86-.51-1.9-.98-3.12-1.41-1.21-.43-2.69-.64-4.42-.64-1.63,0-3.07.22-4.32.66s-2.3,1.03-3.14,1.79c-.84.75-1.47,1.63-1.9,2.65-.43,1.02-.64,2.11-.64,3.29,0,1.5.37,2.75,1.11,3.74.74.99,1.72,1.84,2.93,2.54,1.21.7,2.59,1.31,4.13,1.82s3.12,1.05,4.74,1.6c1.62.55,3.19,1.17,4.74,1.86s2.92,1.56,4.13,2.61c1.21,1.05,2.19,2.34,2.93,3.87.74,1.53,1.11,3.41,1.11,5.64,0,2.36-.4,4.57-1.2,6.63-.8,2.07-1.97,3.87-3.51,5.39s-3.43,2.73-5.67,3.61c-2.24.88-4.79,1.32-7.65,1.32-3.48,0-6.66-.63-9.53-1.9-2.87-1.26-5.32-2.97-7.35-5.13l2.1-3.46c.2-.28.45-.51.73-.7.29-.19.61-.28.96-.28.53,0,1.13.28,1.8.85.68.56,1.52,1.18,2.54,1.86,1.01.68,2.24,1.3,3.68,1.86,1.44.56,3.2.84,5.28.84,1.73,0,3.27-.24,4.62-.71,1.35-.48,2.5-1.15,3.44-2.01s1.66-1.9,2.16-3.1c.5-1.2.75-2.54.75-4.02,0-1.63-.37-2.96-1.11-4-.74-1.04-1.71-1.91-2.91-2.61-1.2-.7-2.57-1.3-4.12-1.79-1.54-.49-3.12-.99-4.74-1.5s-3.19-1.11-4.74-1.79-2.91-1.55-4.12-2.63c-1.2-1.08-2.17-2.42-2.91-4.04-.74-1.62-1.11-3.61-1.11-5.99,0-1.9.37-3.75,1.11-5.53.74-1.78,1.81-3.36,3.21-4.74s3.14-2.48,5.21-3.31c2.07-.83,4.44-1.24,7.12-1.24,3.01,0,5.75.48,8.23,1.43s4.65,2.33,6.5,4.13l-1.77,3.46Z"/>
          <path class="cls-3" d="M192.09,294.1h-5.64c-.65,0-1.18-.16-1.58-.49-.4-.33-.7-.74-.9-1.24l-5.04-13h-24.17l-5.04,13c-.18.45-.48.85-.9,1.2-.43.35-.95.53-1.58.53h-5.64l21.54-53.86h7.4l21.54,53.86ZM156.8,274.11h20.11l-8.46-21.91c-.55-1.35-1.09-3.04-1.62-5.07-.28,1.03-.54,1.97-.81,2.84-.26.86-.52,1.62-.77,2.27l-8.46,21.87Z"/>
          <path class="cls-3" d="M204.1,240.49c.31.16.67.5,1.07,1l31.2,40.59c-.08-.65-.13-1.28-.15-1.9-.03-.61-.04-1.21-.04-1.79v-38.15h6.39v53.86h-3.68c-.58,0-1.06-.1-1.45-.3-.39-.2-.77-.54-1.15-1.01l-31.16-40.55c.05.63.09,1.24.11,1.84.02.6.04,1.15.04,1.65v38.37h-6.39v-53.86h3.76c.65,0,1.13.08,1.45.24Z"/>
          <path class="cls-3" d="M300.03,294.1h-5.64c-.65,0-1.18-.16-1.58-.49-.4-.33-.7-.74-.9-1.24l-5.04-13h-24.17l-5.04,13c-.18.45-.48.85-.9,1.2-.43.35-.95.53-1.58.53h-5.64l21.54-53.86h7.4l21.54,53.86ZM264.74,274.11h20.11l-8.46-21.91c-.55-1.35-1.09-3.04-1.62-5.07-.28,1.03-.54,1.97-.81,2.84-.26.86-.52,1.62-.77,2.27l-8.46,21.87Z"/>
          <path class="cls-3" d="M350.51,294.1h-7.33v-24.5h-29.02v24.5h-7.33v-53.86h7.33v24.02h29.02v-24.02h7.33v53.86Z"/>
        </g>
        <g>
          <g>
            <path class="cls-2" d="M122.33,340.34v-23.78h3.95v9.38c.65-.69,1.39-1.25,2.21-1.66.82-.41,1.78-.62,2.88-.62.9,0,1.71.18,2.46.55.74.37,1.38.9,1.92,1.61.54.7.95,1.57,1.25,2.61.29,1.04.44,2.22.44,3.57,0,1.23-.17,2.36-.5,3.41-.33,1.05-.8,1.95-1.42,2.72-.61.77-1.35,1.37-2.22,1.8-.87.43-1.84.65-2.92.65-.5,0-.96-.05-1.38-.15s-.79-.24-1.14-.42c-.34-.18-.66-.4-.95-.66-.29-.26-.57-.55-.84-.87l-.18,1.1c-.06.28-.17.48-.33.59s-.37.18-.63.18h-2.61ZM130.01,326.74c-.82,0-1.52.17-2.1.52-.58.35-1.12.83-1.62,1.46v7.36c.45.55.94.94,1.46,1.16.53.22,1.1.33,1.72.33s1.14-.11,1.62-.34c.48-.22.89-.57,1.22-1.02.34-.46.59-1.04.78-1.74.18-.7.27-1.52.27-2.47s-.08-1.77-.23-2.44c-.15-.67-.38-1.21-.66-1.62s-.64-.72-1.05-.91-.88-.29-1.4-.29Z"/>
            <path class="cls-2" d="M145.82,344.85c-.12.28-.27.49-.46.63-.19.14-.47.22-.86.22h-2.94l3.07-6.58-6.64-15.2h3.46c.32,0,.57.08.74.22.17.15.3.32.38.51l3.5,8.51c.12.28.22.57.3.86.08.3.16.6.22.9.09-.31.18-.61.28-.9s.21-.58.33-.88l3.3-8.5c.08-.21.23-.39.42-.53.2-.14.42-.21.66-.21h3.17l-8.95,20.93Z"/>
          </g>
          <g>
            <path class="cls-3" d="M212.8,316.95v28.56h6.71v-21.41c0-1.6-.85-6.43-6.71-7.16"/>
            <path class="cls-3" d="M176.35,317.56c1.92,0,3.56.18,4.91.54,1.35.36,2.45.86,3.31,1.51.85.65,1.47,1.44,1.86,2.37.39.93.58,1.97.58,3.12,0,.62-.09,1.23-.27,1.81-.18.58-.46,1.12-.84,1.62-.38.5-.87.97-1.47,1.39-.6.42-1.32.78-2.16,1.09,1.84.45,3.19,1.17,4.07,2.16.88.99,1.32,2.28,1.32,3.86,0,1.19-.23,2.29-.69,3.31-.46,1.02-1.13,1.91-2.02,2.67-.89.76-1.98,1.35-3.28,1.78-1.3.43-2.78.64-4.45.64h-11.13v-27.86h10.25ZM172.56,322.4v6.88h3.37c.71,0,1.36-.05,1.93-.15.57-.1,1.06-.28,1.46-.54.4-.25.71-.61.92-1.05.21-.45.32-1.01.32-1.68s-.08-1.21-.25-1.65c-.17-.44-.42-.79-.76-1.06-.34-.27-.78-.46-1.31-.57-.53-.11-1.16-.17-1.88-.17h-3.79ZM177.11,340.54c.85,0,1.55-.11,2.09-.32.54-.22.97-.5,1.27-.84.31-.34.52-.73.63-1.17.11-.43.17-.87.17-1.32,0-.51-.07-.97-.2-1.38-.13-.41-.36-.75-.69-1.03-.32-.28-.76-.5-1.29-.65-.54-.15-1.21-.23-2.03-.23h-4.51v6.94h4.55Z"/>
            <path class="cls-3" d="M207.09,323.22c-.19.31-.39.54-.6.69-.21.15-.48.23-.81.23-.29,0-.61-.09-.95-.28-.34-.18-.72-.39-1.15-.62-.43-.23-.91-.44-1.46-.62-.55-.18-1.17-.28-1.87-.28-1.21,0-2.11.26-2.71.77-.59.52-.89,1.21-.89,2.09,0,.56.18,1.03.54,1.4.36.37.83.69,1.41.96.58.27,1.24.51,1.99.74.75.22,1.51.47,2.28.75.78.27,1.54.6,2.29.97.75.37,1.41.84,1.99,1.42.58.57,1.05,1.27,1.41,2.09.36.82.54,1.81.54,2.97,0,1.29-.22,2.49-.67,3.61-.45,1.12-1.09,2.1-1.94,2.93-.85.84-1.89,1.49-3.14,1.97-1.24.48-2.65.72-4.24.72-.87,0-1.75-.09-2.65-.27-.9-.18-1.77-.43-2.61-.76-.84-.32-1.63-.71-2.37-1.16-.74-.45-1.38-.94-1.93-1.49l1.91-3.02c.15-.22.35-.4.6-.54.25-.15.52-.22.81-.22.38,0,.77.12,1.16.36.39.24.83.51,1.32.8.49.29,1.05.56,1.69.8.64.24,1.39.36,2.26.36,1.17,0,2.08-.26,2.73-.77.65-.52.97-1.34.97-2.46,0-.65-.18-1.18-.54-1.59-.36-.41-.83-.75-1.41-1.01-.58-.27-1.24-.5-1.98-.71-.74-.2-1.5-.43-2.27-.68-.78-.25-1.54-.55-2.28-.92-.74-.36-1.4-.84-1.98-1.43-.58-.59-1.05-1.33-1.41-2.22-.36-.89-.54-1.98-.54-3.28,0-1.05.21-2.07.63-3.06.42-.99,1.04-1.88,1.85-2.66.82-.78,1.82-1.4,3-1.86,1.19-.47,2.54-.7,4.07-.7.85,0,1.69.07,2.5.2.81.13,1.58.33,2.3.59.73.26,1.41.57,2.04.94.63.36,1.19.77,1.69,1.23l-1.61,3Z"/>
            <path class="cls-2" d="M220.25,306.66c-.01-.23-.04-.46-.08-.69,1.5,1.55,3.65,2.46,5.97,2.31,1.11-.07,2.15-.38,3.08-.86-.72,1.25-1.09,2.72-.99,4.27.12,1.92.94,3.63,2.2,4.89-.64-.13-1.31-.18-1.99-.14-2.72.17-5.01,1.75-6.23,3.97-.48-3.29-3.03-5.85-6.22-6.41,2.7-1.32,4.47-4.17,4.27-7.35"/>
          </g>
        </g>
      </g>
    </g>
  </g>
</svg>