<svg width="43" height="41" viewBox="0 0 43 41" fill="none" xmlns="http://www.w3.org/2000/svg">
<path d="M21.1699 0.5C23.5266 0.502512 25.7812 1.39556 27.4404 2.97559C28.9951 4.45613 29.9086 6.42566 30.0186 8.49707L30.0293 8.91309C30.0292 9.46338 29.7997 9.99659 29.3828 10.3936C28.965 10.7913 28.3929 11.0186 27.792 11.0186C27.1911 11.0185 26.619 10.7914 26.2012 10.3936C25.7842 9.99648 25.5547 9.46252 25.5547 8.91211L25.5498 8.70312C25.4954 7.65792 25.0353 6.67015 24.2617 5.93359C23.4375 5.14893 22.3244 4.71191 21.1689 4.71191H9.36035C8.20486 4.71192 7.09178 5.1489 6.26758 5.93359C5.44263 6.71907 4.97474 7.79019 4.97461 8.91211V31.9043C4.97461 33.0263 5.44263 34.0972 6.26758 34.8828C7.0918 35.6676 8.20478 36.1045 9.36035 36.1045H21.168C22.3235 36.1044 23.4366 35.6676 24.2607 34.8828C25.0856 34.0972 25.5537 33.0263 25.5537 31.9043L25.5645 31.6992C25.614 31.223 25.8353 30.7713 26.2002 30.4238C26.5659 30.0756 27.0495 29.8576 27.5674 29.8086L27.791 29.7979C28.392 29.7979 28.964 30.026 29.3818 30.4238C29.7987 30.8209 30.0283 31.354 30.0283 31.9043L30.0166 32.3193C29.9065 34.3907 28.9942 36.3604 27.4395 37.8408C25.7803 39.4206 23.5254 40.3128 21.1689 40.3154H9.36133C7.00452 40.3133 4.74938 39.4207 3.08984 37.8408C1.43123 36.2618 0.502685 34.1265 0.5 31.9043V8.91309C0.502261 6.69058 1.43013 4.554 3.08887 2.97461C4.64463 1.49334 6.72412 0.616455 8.91992 0.510742L9.36133 0.5H21.1699Z" fill="#FF0000" stroke="white"/>
<path d="M33.7609 12.1382C34.2824 12.1351 34.7835 12.3036 35.1818 12.6069L35.3458 12.7446L41.8741 18.9595L41.88 18.9653L41.8859 18.9702C41.9098 18.9917 41.9364 19.0191 41.9689 19.0552L41.9816 19.0698L41.9894 19.0767L41.9904 19.0776L41.9972 19.0854C42.0625 19.1587 42.122 19.2362 42.1759 19.3169V19.3159L42.1808 19.3237L42.1857 19.3325C42.2213 19.3866 42.2533 19.4427 42.2833 19.4995V19.5015L42.3302 19.6021C42.3605 19.667 42.3857 19.7338 42.4083 19.8013V19.8052L42.4327 19.8911L42.4689 20.0347L42.4855 20.1343V20.1665L42.4894 20.1978C42.4903 20.2049 42.4915 20.212 42.4923 20.2183C42.4932 20.2249 42.4945 20.2311 42.4952 20.2368C42.4967 20.2479 42.4974 20.2566 42.4982 20.2642C42.4998 20.2796 42.5001 20.2861 42.5001 20.2876V20.5044C42.5 20.5093 42.4991 20.5161 42.4962 20.5474C42.4944 20.5673 42.4926 20.6017 42.4913 20.6411C42.4867 20.6801 42.4809 20.7186 42.4747 20.7573C42.4709 20.7745 42.4669 20.7903 42.465 20.8052C42.4647 20.8073 42.4642 20.8099 42.464 20.812C42.4464 20.9025 42.4244 20.9927 42.3947 21.0806L42.3634 21.1704C42.3365 21.239 42.3078 21.3071 42.2726 21.3726L42.712 21.6099L42.2716 21.3726L42.2706 21.3745C42.2249 21.4605 42.1732 21.5439 42.1154 21.6235L42.1007 21.6421L42.0997 21.645C42.069 21.6854 42.036 21.7241 42.0031 21.7632L41.9982 21.769L41.9962 21.772L41.9142 21.8589L41.9083 21.8657L41.8732 21.9009L41.8683 21.9067L41.8527 21.9214L35.3536 28.1099L35.6984 28.4722L35.3527 28.1099L35.3488 28.1147C35.1432 28.3154 34.8963 28.4764 34.6222 28.5874C34.348 28.6984 34.0524 28.7565 33.7531 28.7583C33.4536 28.7601 33.1568 28.705 32.881 28.5972C32.6052 28.4894 32.3559 28.3317 32.1476 28.1333C31.9393 27.935 31.7756 27.7 31.6652 27.4438C31.5549 27.1879 31.4993 26.9142 31.5011 26.6392C31.5029 26.364 31.5621 26.0912 31.6759 25.8364C31.7612 25.6454 31.8766 25.4671 32.0177 25.3071L32.1671 25.1528L32.171 25.1499L34.006 23.4087L34.9152 22.5464H14.2726L14.049 22.5356C13.5312 22.4867 13.0474 22.2695 12.6818 21.9214C12.2647 21.5243 12.0353 20.9904 12.0353 20.4399L12.046 20.2349C12.0956 19.7586 12.3168 19.3069 12.6818 18.9595C13.0475 18.6112 13.531 18.3932 14.049 18.3442L14.2726 18.3345H34.9249L34.0197 17.4722L32.1603 15.7017C31.755 15.3036 31.5346 14.7748 31.5382 14.231C31.5419 13.6851 31.7711 13.1569 32.1847 12.7632C32.5991 12.3688 33.165 12.1418 33.7609 12.1382Z" fill="#FF0000" stroke="white"/>
</svg>
