<svg width="80" height="57" viewBox="0 0 80 57" fill="none" xmlns="http://www.w3.org/2000/svg">
<ellipse cx="30.6667" cy="19" rx="18.6667" ry="19" fill="white" fill-opacity="0.5"/>
<ellipse cx="49.3334" cy="19" rx="18.6667" ry="19" fill="white" fill-opacity="0.5"/>
<path d="M13.392 42.536V54H12.032V45.576C12.032 45.464 12.0347 45.344 12.04 45.216C12.0507 45.088 12.0613 44.9573 12.072 44.824L8.136 51.992C8.01333 52.232 7.82667 52.352 7.576 52.352H7.352C7.10133 52.352 6.91467 52.232 6.792 51.992L2.776 44.792C2.808 45.0747 2.824 45.336 2.824 45.576V54H1.464V42.536H2.608C2.74667 42.536 2.85333 42.5493 2.928 42.576C3.00267 42.6027 3.07467 42.6773 3.144 42.8L7.104 49.856C7.168 49.984 7.22933 50.1173 7.288 50.256C7.352 50.3947 7.41067 50.536 7.464 50.68C7.51733 50.536 7.57333 50.3947 7.632 50.256C7.69067 50.112 7.75467 49.976 7.824 49.848L11.712 42.8C11.776 42.6773 11.8453 42.6027 11.92 42.576C12 42.5493 12.1093 42.536 12.248 42.536H13.392ZM20.145 50.352C19.489 50.3733 18.929 50.4267 18.465 50.512C18.0063 50.592 17.6303 50.6987 17.337 50.832C17.049 50.9653 16.8383 51.1227 16.705 51.304C16.577 51.4853 16.513 51.688 16.513 51.912C16.513 52.1253 16.5477 52.3093 16.617 52.464C16.6863 52.6187 16.7797 52.7467 16.897 52.848C17.0197 52.944 17.161 53.016 17.321 53.064C17.4863 53.1067 17.6623 53.128 17.849 53.128C18.0997 53.128 18.329 53.104 18.537 53.056C18.745 53.0027 18.9397 52.928 19.121 52.832C19.3077 52.736 19.4837 52.6213 19.649 52.488C19.8197 52.3547 19.985 52.2027 20.145 52.032V50.352ZM15.545 47.04C15.993 46.608 16.4757 46.2853 16.993 46.072C17.5103 45.8587 18.0837 45.752 18.713 45.752C19.1663 45.752 19.569 45.8267 19.921 45.976C20.273 46.1253 20.569 46.3333 20.809 46.6C21.049 46.8667 21.2303 47.1893 21.353 47.568C21.4757 47.9467 21.537 48.3627 21.537 48.816V54H20.905C20.7663 54 20.6597 53.9787 20.585 53.936C20.5103 53.888 20.4517 53.7973 20.409 53.664L20.249 52.896C20.0357 53.0933 19.8277 53.2693 19.625 53.424C19.4223 53.5733 19.209 53.7013 18.985 53.808C18.761 53.9093 18.521 53.9867 18.265 54.04C18.0143 54.0987 17.7343 54.128 17.425 54.128C17.1103 54.128 16.8143 54.0853 16.537 54C16.2597 53.9093 16.017 53.776 15.809 53.6C15.6063 53.424 15.4437 53.2027 15.321 52.936C15.2037 52.664 15.145 52.344 15.145 51.976C15.145 51.656 15.233 51.3493 15.409 51.056C15.585 50.7573 15.8703 50.4933 16.265 50.264C16.6597 50.0347 17.1743 49.848 17.809 49.704C18.4437 49.5547 19.2223 49.4693 20.145 49.448V48.816C20.145 48.1867 20.009 47.712 19.737 47.392C19.465 47.0667 19.0677 46.904 18.545 46.904C18.193 46.904 17.897 46.9493 17.657 47.04C17.4223 47.1253 17.217 47.224 17.041 47.336C16.8703 47.4427 16.721 47.5413 16.593 47.632C16.4703 47.7173 16.3477 47.76 16.225 47.76C16.129 47.76 16.0463 47.736 15.977 47.688C15.9077 47.6347 15.849 47.5707 15.801 47.496L15.545 47.04ZM28.4261 47.232C28.3621 47.3493 28.2635 47.408 28.1301 47.408C28.0501 47.408 27.9595 47.3787 27.8581 47.32C27.7568 47.2613 27.6315 47.1973 27.4821 47.128C27.3381 47.0533 27.1648 46.9867 26.9621 46.928C26.7595 46.864 26.5195 46.832 26.2421 46.832C26.0021 46.832 25.7861 46.864 25.5941 46.928C25.4021 46.9867 25.2368 47.0693 25.0981 47.176C24.9648 47.2827 24.8608 47.408 24.7861 47.552C24.7168 47.6907 24.6821 47.8427 24.6821 48.008C24.6821 48.216 24.7408 48.3893 24.8581 48.528C24.9808 48.6667 25.1408 48.7867 25.3381 48.888C25.5355 48.9893 25.7595 49.08 26.0101 49.16C26.2608 49.2347 26.5168 49.3173 26.7781 49.408C27.0448 49.4933 27.3035 49.5893 27.5541 49.696C27.8048 49.8027 28.0288 49.936 28.2261 50.096C28.4235 50.256 28.5808 50.4533 28.6981 50.688C28.8208 50.9173 28.8821 51.1947 28.8821 51.52C28.8821 51.8933 28.8155 52.24 28.6821 52.56C28.5488 52.8747 28.3515 53.1493 28.0901 53.384C27.8288 53.6133 27.5088 53.7947 27.1301 53.928C26.7515 54.0613 26.3141 54.128 25.8181 54.128C25.2528 54.128 24.7408 54.0373 24.2821 53.856C23.8235 53.6693 23.4341 53.432 23.1141 53.144L23.4501 52.6C23.4928 52.5307 23.5435 52.4773 23.6021 52.44C23.6608 52.4027 23.7355 52.384 23.8261 52.384C23.9221 52.384 24.0235 52.4213 24.1301 52.496C24.2368 52.5707 24.3648 52.6533 24.5141 52.744C24.6688 52.8347 24.8555 52.9173 25.0741 52.992C25.2928 53.0667 25.5648 53.104 25.8901 53.104C26.1675 53.104 26.4101 53.0693 26.6181 53C26.8261 52.9253 26.9995 52.8267 27.1381 52.704C27.2768 52.5813 27.3781 52.44 27.4421 52.28C27.5115 52.12 27.5461 51.9493 27.5461 51.768C27.5461 51.544 27.4848 51.36 27.3621 51.216C27.2448 51.0667 27.0875 50.9413 26.8901 50.84C26.6928 50.7333 26.4661 50.6427 26.2101 50.568C25.9595 50.488 25.7008 50.4053 25.4341 50.32C25.1728 50.2347 24.9141 50.1387 24.6581 50.032C24.4075 49.92 24.1835 49.7813 23.9861 49.616C23.7888 49.4507 23.6288 49.248 23.5061 49.008C23.3888 48.7627 23.3301 48.4667 23.3301 48.12C23.3301 47.8107 23.3941 47.5147 23.5221 47.232C23.6501 46.944 23.8368 46.6933 24.0821 46.48C24.3275 46.2613 24.6288 46.088 24.9861 45.96C25.3435 45.832 25.7515 45.768 26.2101 45.768C26.7435 45.768 27.2208 45.8533 27.6421 46.024C28.0688 46.1893 28.4368 46.4187 28.7461 46.712L28.4261 47.232ZM33.116 54.128C32.476 54.128 31.9827 53.9493 31.636 53.592C31.2947 53.2347 31.124 52.72 31.124 52.048V47.088H30.148C30.0627 47.088 29.9907 47.064 29.932 47.016C29.8733 46.9627 29.844 46.8827 29.844 46.776V46.208L31.172 46.04L31.5 43.536C31.516 43.456 31.5507 43.392 31.604 43.344C31.6627 43.2907 31.7373 43.264 31.828 43.264H32.548V46.056H34.892V47.088H32.548V51.952C32.548 52.2933 32.6307 52.5467 32.796 52.712C32.9613 52.8773 33.1747 52.96 33.436 52.96C33.5853 52.96 33.7133 52.9413 33.82 52.904C33.932 52.8613 34.028 52.816 34.108 52.768C34.188 52.72 34.2547 52.6773 34.308 52.64C34.3667 52.5973 34.4173 52.576 34.46 52.576C34.5347 52.576 34.6013 52.6213 34.66 52.712L35.076 53.392C34.8307 53.6213 34.5347 53.8027 34.188 53.936C33.8413 54.064 33.484 54.128 33.116 54.128ZM41.7395 49.064C41.7395 48.7333 41.6915 48.432 41.5955 48.16C41.5048 47.8827 41.3688 47.6453 41.1875 47.448C41.0115 47.2453 40.7955 47.0907 40.5395 46.984C40.2835 46.872 39.9928 46.816 39.6675 46.816C38.9848 46.816 38.4435 47.016 38.0435 47.416C37.6488 47.8107 37.4035 48.36 37.3075 49.064H41.7395ZM42.8915 52.864C42.7155 53.0773 42.5048 53.264 42.2595 53.424C42.0142 53.5787 41.7502 53.7067 41.4675 53.808C41.1902 53.9093 40.9022 53.984 40.6035 54.032C40.3048 54.0853 40.0088 54.112 39.7155 54.112C39.1555 54.112 38.6382 54.0187 38.1635 53.832C37.6942 53.64 37.2862 53.3627 36.9395 53C36.5982 52.632 36.3315 52.1787 36.1395 51.64C35.9475 51.1013 35.8515 50.4827 35.8515 49.784C35.8515 49.2187 35.9368 48.6907 36.1075 48.2C36.2835 47.7093 36.5342 47.2853 36.8595 46.928C37.1848 46.5653 37.5822 46.2827 38.0515 46.08C38.5208 45.872 39.0488 45.768 39.6355 45.768C40.1208 45.768 40.5688 45.8507 40.9795 46.016C41.3955 46.176 41.7528 46.4107 42.0515 46.72C42.3555 47.024 42.5928 47.4027 42.7635 47.856C42.9342 48.304 43.0195 48.816 43.0195 49.392C43.0195 49.616 42.9955 49.7653 42.9475 49.84C42.8995 49.9147 42.8088 49.952 42.6755 49.952H37.2595C37.2755 50.464 37.3448 50.9093 37.4675 51.288C37.5955 51.6667 37.7715 51.984 37.9955 52.24C38.2195 52.4907 38.4862 52.68 38.7955 52.808C39.1048 52.9307 39.4515 52.992 39.8355 52.992C40.1928 52.992 40.4995 52.952 40.7555 52.872C41.0168 52.7867 41.2408 52.696 41.4275 52.6C41.6142 52.504 41.7688 52.416 41.8915 52.336C42.0195 52.2507 42.1288 52.208 42.2195 52.208C42.3368 52.208 42.4275 52.2533 42.4915 52.344L42.8915 52.864ZM46.1206 47.52C46.3766 46.9653 46.6913 46.5333 47.0646 46.224C47.438 45.9093 47.894 45.752 48.4326 45.752C48.6033 45.752 48.766 45.7707 48.9206 45.808C49.0806 45.8453 49.222 45.904 49.3446 45.984L49.2406 47.048C49.2086 47.1813 49.1286 47.248 49.0006 47.248C48.926 47.248 48.8166 47.232 48.6726 47.2C48.5286 47.168 48.366 47.152 48.1846 47.152C47.9286 47.152 47.6993 47.1893 47.4966 47.264C47.2993 47.3387 47.1206 47.4507 46.9606 47.6C46.806 47.744 46.6646 47.9253 46.5366 48.144C46.414 48.3573 46.302 48.6027 46.2006 48.88V54H44.7686V45.896H45.5846C45.7393 45.896 45.846 45.9253 45.9046 45.984C45.9633 46.0427 46.0033 46.144 46.0246 46.288L46.1206 47.52ZM55.9086 47.336C55.866 47.3947 55.8233 47.44 55.7806 47.472C55.738 47.504 55.6793 47.52 55.6046 47.52C55.5246 47.52 55.4366 47.488 55.3406 47.424C55.2446 47.3547 55.1246 47.28 54.9806 47.2C54.842 47.12 54.6686 47.048 54.4606 46.984C54.258 46.9147 54.0073 46.88 53.7086 46.88C53.3086 46.88 52.9566 46.952 52.6526 47.096C52.3486 47.2347 52.0926 47.4373 51.8846 47.704C51.682 47.9707 51.5273 48.2933 51.4206 48.672C51.3193 49.0507 51.2686 49.4747 51.2686 49.944C51.2686 50.4347 51.3246 50.872 51.4366 51.256C51.5486 51.6347 51.706 51.9547 51.9086 52.216C52.1166 52.472 52.3646 52.6693 52.6526 52.808C52.946 52.9413 53.274 53.008 53.6366 53.008C53.9833 53.008 54.2686 52.968 54.4926 52.888C54.7166 52.8027 54.9006 52.7093 55.0446 52.608C55.194 52.5067 55.3166 52.416 55.4126 52.336C55.514 52.2507 55.6126 52.208 55.7086 52.208C55.826 52.208 55.9166 52.2533 55.9806 52.344L56.3806 52.864C56.2046 53.0827 56.0046 53.2693 55.7806 53.424C55.5566 53.5787 55.314 53.7093 55.0526 53.816C54.7966 53.9173 54.5273 53.992 54.2446 54.04C53.962 54.088 53.674 54.112 53.3806 54.112C52.874 54.112 52.402 54.0187 51.9646 53.832C51.5326 53.6453 51.1566 53.376 50.8366 53.024C50.5166 52.6667 50.266 52.2293 50.0846 51.712C49.9033 51.1947 49.8126 50.6053 49.8126 49.944C49.8126 49.3413 49.8953 48.784 50.0606 48.272C50.2313 47.76 50.4766 47.32 50.7966 46.952C51.122 46.5787 51.5193 46.288 51.9886 46.08C52.4633 45.872 53.0073 45.768 53.6206 45.768C54.1913 45.768 54.6926 45.8613 55.1246 46.048C55.562 46.2293 55.9486 46.488 56.2846 46.824L55.9086 47.336ZM62.3013 50.352C61.6453 50.3733 61.0853 50.4267 60.6213 50.512C60.1626 50.592 59.7866 50.6987 59.4933 50.832C59.2053 50.9653 58.9946 51.1227 58.8613 51.304C58.7333 51.4853 58.6693 51.688 58.6693 51.912C58.6693 52.1253 58.7039 52.3093 58.7733 52.464C58.8426 52.6187 58.9359 52.7467 59.0533 52.848C59.1759 52.944 59.3173 53.016 59.4773 53.064C59.6426 53.1067 59.8186 53.128 60.0053 53.128C60.2559 53.128 60.4853 53.104 60.6933 53.056C60.9013 53.0027 61.0959 52.928 61.2773 52.832C61.4639 52.736 61.6399 52.6213 61.8053 52.488C61.9759 52.3547 62.1413 52.2027 62.3013 52.032V50.352ZM57.7013 47.04C58.1493 46.608 58.6319 46.2853 59.1493 46.072C59.6666 45.8587 60.2399 45.752 60.8693 45.752C61.3226 45.752 61.7253 45.8267 62.0773 45.976C62.4293 46.1253 62.7253 46.3333 62.9653 46.6C63.2053 46.8667 63.3866 47.1893 63.5093 47.568C63.6319 47.9467 63.6933 48.3627 63.6933 48.816V54H63.0613C62.9226 54 62.8159 53.9787 62.7413 53.936C62.6666 53.888 62.6079 53.7973 62.5653 53.664L62.4053 52.896C62.1919 53.0933 61.9839 53.2693 61.7812 53.424C61.5786 53.5733 61.3653 53.7013 61.1413 53.808C60.9173 53.9093 60.6773 53.9867 60.4213 54.04C60.1706 54.0987 59.8906 54.128 59.5813 54.128C59.2666 54.128 58.9706 54.0853 58.6933 54C58.4159 53.9093 58.1733 53.776 57.9653 53.6C57.7626 53.424 57.5999 53.2027 57.4773 52.936C57.3599 52.664 57.3013 52.344 57.3013 51.976C57.3013 51.656 57.3893 51.3493 57.5653 51.056C57.7413 50.7573 58.0266 50.4933 58.4213 50.264C58.8159 50.0347 59.3306 49.848 59.9653 49.704C60.5999 49.5547 61.3786 49.4693 62.3013 49.448V48.816C62.3013 48.1867 62.1653 47.712 61.8933 47.392C61.6213 47.0667 61.2239 46.904 60.7013 46.904C60.3493 46.904 60.0533 46.9493 59.8133 47.04C59.5786 47.1253 59.3733 47.224 59.1973 47.336C59.0266 47.4427 58.8773 47.5413 58.7493 47.632C58.6266 47.7173 58.5039 47.76 58.3813 47.76C58.2853 47.76 58.2026 47.736 58.1333 47.688C58.0639 47.6347 58.0053 47.5707 57.9572 47.496L57.7013 47.04ZM67.2144 47.52C67.4704 46.9653 67.785 46.5333 68.1584 46.224C68.5317 45.9093 68.9877 45.752 69.5264 45.752C69.697 45.752 69.8597 45.7707 70.0144 45.808C70.1744 45.8453 70.3157 45.904 70.4384 45.984L70.3344 47.048C70.3024 47.1813 70.2224 47.248 70.0944 47.248C70.0197 47.248 69.9104 47.232 69.7664 47.2C69.6224 47.168 69.4597 47.152 69.2784 47.152C69.0224 47.152 68.793 47.1893 68.5904 47.264C68.393 47.3387 68.2144 47.4507 68.0544 47.6C67.8997 47.744 67.7584 47.9253 67.6304 48.144C67.5077 48.3573 67.3957 48.6027 67.2944 48.88V54H65.8624V45.896H66.6784C66.833 45.896 66.9397 45.9253 66.9984 45.984C67.057 46.0427 67.097 46.144 67.1184 46.288L67.2144 47.52ZM76.658 47.824C76.3913 47.4667 76.1033 47.2187 75.794 47.08C75.4847 46.936 75.138 46.864 74.754 46.864C74.002 46.864 73.4233 47.1333 73.018 47.672C72.6127 48.2107 72.41 48.9787 72.41 49.976C72.41 50.504 72.4553 50.9573 72.546 51.336C72.6367 51.7093 72.77 52.0187 72.946 52.264C73.122 52.504 73.338 52.68 73.594 52.792C73.85 52.904 74.1407 52.96 74.466 52.96C74.9353 52.96 75.3433 52.8533 75.69 52.64C76.042 52.4267 76.3647 52.1253 76.658 51.736V47.824ZM78.082 42.216V54H77.234C77.0313 54 76.9033 53.9013 76.85 53.704L76.722 52.72C76.3753 53.136 75.9807 53.472 75.538 53.728C75.0953 53.984 74.5833 54.112 74.002 54.112C73.538 54.112 73.1167 54.024 72.738 53.848C72.3593 53.6667 72.0367 53.4027 71.77 53.056C71.5033 52.7093 71.298 52.2773 71.154 51.76C71.01 51.2427 70.938 50.648 70.938 49.976C70.938 49.3787 71.018 48.824 71.178 48.312C71.338 47.7947 71.5673 47.3467 71.866 46.968C72.1647 46.5893 72.53 46.2933 72.962 46.08C73.3993 45.8613 73.89 45.752 74.434 45.752C74.93 45.752 75.354 45.8373 75.706 46.008C76.0633 46.1733 76.3807 46.4053 76.658 46.704V42.216H78.082Z" fill="white"/>
</svg>
